# xmcd
#
# Track frame offsets:
#	187
#	15605
#	29590
#	41445
#	57242
#	72052
#	85747
#	97597
#	110282
#	129932
#	140672
#	150195
#	161165
#	175222
#	188060
#	199390
#	210622
#	222185
#	236577
#	247025
#
# Disc length: 3459 seconds
#
# Revision: 4
# Processed by: cddbd v1.5.2PL0 Copyright (c) Steve Scherf et al.
# Submitted via: dBpowerAMP V4.0
#
DISCID=0b0d8114
DTITLE=Various Artist - Country Sweet 'n' Sentimental disc 2
DYEAR=1993
DGENRE=Country
TTITLE0=Lee Greenwood - I Don't Mind the Thorns (if You're The Rose)
TTITLE1=Marty Robbins - Walking Piece of Heaven
TTITLE2=Conway Twitty - The Tips of My Fingers
TTITLE3=Steve Wariner, The Shelly KurlandStrings - All Roads Lead to You
TTITLE4=Keith Whitley - I Wonder Do You Think of Me
TTITLE5=Kenny Rogers, The First Edition - But You Know I Love You
TTITLE6=Sonny James - Born to Be with You
TTITLE7=Jim Reeves - I Can't Stop Loving You
TTITLE8=Marty Robbins - Love Me
TTITLE9=Merle Haggard - Today I Started Loving You Again
TTITLE10=Jim Reeves - Dear Hearts and Gentle People
TTITLE11=Patsy Cline - Love Letters in the Sand
TTITLE12=The Statler Brothers - I Believe in Music
TTITLE13=Tanya Tucker - San Antonio Stroll
TTITLE14=Eddy Arnold - What a Wonderful World
TTITLE15=George Hamilton IV - Gentle on My Mind
TTITLE16=Dickey Lee - Mountain of Love
TTITLE17=Bill Anderson - Little Green Apples
TTITLE18=George Jones - Hey, Good Lookin'
TTITLE19=Brenda Lee - Jambalaya
EXTD=additions and corrections to data
EXTT0=
EXTT1=
EXTT2=
EXTT3=
EXTT4=
EXTT5=
EXTT6=
EXTT7=
EXTT8=
EXTT9=
EXTT10=
EXTT11=
EXTT12=
EXTT13=
EXTT14=
EXTT15=
EXTT16=
EXTT17=
EXTT18=
EXTT19=
PLAYORDER=
